<svg xmlns="http://www.w3.org/2000/svg" xmlns:xlink="http://www.w3.org/1999/xlink" width="22" height="22" viewBox="0 0 22 22"><defs><path id="xjcca" d="M183.523 1137c-.6 0-1-.4-1-1s.4-1 1-1h9c.6 0 1 .4 1 1s-.4 1-1 1zm-2.5 3.5c-.6 0-1-.4-1-1s.4-1 1-1h14c.6 0 1 .4 1 1s-.4 1-1 1zm-4 4.1c-.2-1.4.9-2.6 2.3-2.6h17.3c1.4 0 2.5 1.2 2.3 2.6l-1.2 10c-.2 1.3-1.3 2.4-2.7 2.4h-14.1c-1.3 0-2.5-1-2.7-2.4zm2-.2l1.2 10c0 .3.4.6.7.6h14.2c.3 0 .7-.3.7-.6l1.2-10c0-.2-.1-.4-.4-.4h-17.2c-.3 0-.4.1-.4.4z"/></defs><g><g transform="translate(-177 -1135)"><use fill="#3497fd" xlink:href="#xjcca"/></g></g></svg>